<mxfile host="app.diagrams.net" modified="2023-05-27T16:15:02.315Z" agent="Mozilla/5.0 (X11; Ubuntu; Linux x86_64; rv:109.0) Gecko/20100101 Firefox/113.0" etag="Rp0jlhnRpFuRJ00JdS2-" version="21.3.4" type="device">
  <diagram name="Page-1" id="gDekk_yLsWNZveU6aMqe">
    <mxGraphModel dx="1147" dy="636" grid="1" gridSize="10" guides="1" tooltips="1" connect="1" arrows="1" fold="1" page="1" pageScale="1" pageWidth="850" pageHeight="1100" math="0" shadow="0">
      <root>
        <mxCell id="0" />
        <mxCell id="1" parent="0" />
        <mxCell id="i9w1kdauPmTtHQtBrQjo-3" value="" style="group;aspect=fixed;" vertex="1" connectable="0" parent="1">
          <mxGeometry x="190" y="170" width="525" height="350" as="geometry" />
        </mxCell>
        <mxCell id="lMvDRTyG3sQqj4a4Xa7K-1" value="" style="endArrow=classic;html=1;rounded=0;" parent="i9w1kdauPmTtHQtBrQjo-3" edge="1">
          <mxGeometry width="50" height="50" relative="1" as="geometry">
            <mxPoint x="17.5" y="122.07999999999998" as="sourcePoint" />
            <mxPoint x="87.5" y="122.07999999999998" as="targetPoint" />
          </mxGeometry>
        </mxCell>
        <mxCell id="lMvDRTyG3sQqj4a4Xa7K-3" value="" style="ellipse;whiteSpace=wrap;html=1;aspect=fixed;" parent="i9w1kdauPmTtHQtBrQjo-3" vertex="1">
          <mxGeometry x="87.5" y="105" width="35" height="35" as="geometry" />
        </mxCell>
        <mxCell id="lMvDRTyG3sQqj4a4Xa7K-5" value="&lt;font style=&quot;font-size: 16px;&quot;&gt;Sideways velocity controller&lt;/font&gt;" style="rounded=0;whiteSpace=wrap;html=1;strokeColor=#FF0000;" parent="i9w1kdauPmTtHQtBrQjo-3" vertex="1">
          <mxGeometry x="210" width="140" height="105" as="geometry" />
        </mxCell>
        <mxCell id="lMvDRTyG3sQqj4a4Xa7K-6" value="&lt;div&gt;&lt;font style=&quot;font-size: 16px;&quot;&gt;Angular &lt;br&gt;&lt;/font&gt;&lt;/div&gt;&lt;div&gt;&lt;font style=&quot;font-size: 16px;&quot;&gt;velocity controller&lt;/font&gt;&lt;/div&gt;" style="rounded=0;whiteSpace=wrap;html=1;" parent="i9w1kdauPmTtHQtBrQjo-3" vertex="1">
          <mxGeometry x="210" y="140" width="140" height="105" as="geometry" />
        </mxCell>
        <mxCell id="lMvDRTyG3sQqj4a4Xa7K-7" value="" style="endArrow=classic;html=1;rounded=0;entryX=0;entryY=0.5;entryDx=0;entryDy=0;" parent="i9w1kdauPmTtHQtBrQjo-3" target="lMvDRTyG3sQqj4a4Xa7K-5" edge="1">
          <mxGeometry width="50" height="50" relative="1" as="geometry">
            <mxPoint x="157.50000000000003" y="122.5" as="sourcePoint" />
            <mxPoint x="175" y="35" as="targetPoint" />
            <Array as="points">
              <mxPoint x="175" y="122.5" />
              <mxPoint x="175" y="52.5" />
            </Array>
          </mxGeometry>
        </mxCell>
        <mxCell id="lMvDRTyG3sQqj4a4Xa7K-8" value="" style="endArrow=classic;html=1;rounded=0;entryX=0;entryY=0.5;entryDx=0;entryDy=0;exitX=1;exitY=0.5;exitDx=0;exitDy=0;" parent="i9w1kdauPmTtHQtBrQjo-3" source="lMvDRTyG3sQqj4a4Xa7K-3" target="lMvDRTyG3sQqj4a4Xa7K-6" edge="1">
          <mxGeometry width="50" height="50" relative="1" as="geometry">
            <mxPoint x="157.50000000000003" y="122.5" as="sourcePoint" />
            <mxPoint x="210" y="105" as="targetPoint" />
            <Array as="points">
              <mxPoint x="175" y="122.5" />
              <mxPoint x="175" y="192.5" />
            </Array>
          </mxGeometry>
        </mxCell>
        <mxCell id="lMvDRTyG3sQqj4a4Xa7K-11" value="" style="endArrow=none;html=1;rounded=0;" parent="i9w1kdauPmTtHQtBrQjo-3" edge="1">
          <mxGeometry width="50" height="50" relative="1" as="geometry">
            <mxPoint x="350" y="192.5" as="sourcePoint" />
            <mxPoint x="385" y="140" as="targetPoint" />
            <Array as="points">
              <mxPoint x="385" y="192.5" />
            </Array>
          </mxGeometry>
        </mxCell>
        <mxCell id="lMvDRTyG3sQqj4a4Xa7K-13" value="" style="endArrow=classic;html=1;rounded=0;entryX=0.5;entryY=1;entryDx=0;entryDy=0;" parent="i9w1kdauPmTtHQtBrQjo-3" target="lMvDRTyG3sQqj4a4Xa7K-3" edge="1">
          <mxGeometry width="50" height="50" relative="1" as="geometry">
            <mxPoint x="420" y="122.5" as="sourcePoint" />
            <mxPoint x="490" y="297.50000000000006" as="targetPoint" />
            <Array as="points">
              <mxPoint x="420" y="315.00000000000006" />
              <mxPoint x="105" y="315.00000000000006" />
            </Array>
          </mxGeometry>
        </mxCell>
        <mxCell id="lMvDRTyG3sQqj4a4Xa7K-14" value="&lt;font style=&quot;font-size: 22px;&quot;&gt;e&lt;/font&gt;" style="text;html=1;strokeColor=none;fillColor=none;align=center;verticalAlign=middle;whiteSpace=wrap;rounded=0;" parent="i9w1kdauPmTtHQtBrQjo-3" vertex="1">
          <mxGeometry x="122.5" y="78.75000000000001" width="52.5" height="52.5" as="geometry" />
        </mxCell>
        <mxCell id="lMvDRTyG3sQqj4a4Xa7K-16" value="" style="ellipse;whiteSpace=wrap;html=1;aspect=fixed;" parent="i9w1kdauPmTtHQtBrQjo-3" vertex="1">
          <mxGeometry x="367.5" y="105" width="35" height="35" as="geometry" />
        </mxCell>
        <mxCell id="lMvDRTyG3sQqj4a4Xa7K-17" value="" style="endArrow=none;html=1;rounded=0;entryX=0.5;entryY=0;entryDx=0;entryDy=0;" parent="i9w1kdauPmTtHQtBrQjo-3" target="lMvDRTyG3sQqj4a4Xa7K-16" edge="1">
          <mxGeometry width="50" height="50" relative="1" as="geometry">
            <mxPoint x="350" y="52.5" as="sourcePoint" />
            <mxPoint x="385" as="targetPoint" />
            <Array as="points">
              <mxPoint x="385" y="52.5" />
            </Array>
          </mxGeometry>
        </mxCell>
        <mxCell id="lMvDRTyG3sQqj4a4Xa7K-18" value="&lt;font style=&quot;font-size: 16px;&quot;&gt;+&lt;/font&gt;" style="text;html=1;strokeColor=none;fillColor=none;align=center;verticalAlign=middle;whiteSpace=wrap;rounded=0;" parent="i9w1kdauPmTtHQtBrQjo-3" vertex="1">
          <mxGeometry x="70" y="78.75000000000001" width="35" height="35" as="geometry" />
        </mxCell>
        <mxCell id="lMvDRTyG3sQqj4a4Xa7K-19" value="&lt;font style=&quot;font-size: 16px;&quot;&gt;+&lt;/font&gt;" style="text;html=1;strokeColor=none;fillColor=none;align=center;verticalAlign=middle;whiteSpace=wrap;rounded=0;" parent="i9w1kdauPmTtHQtBrQjo-3" vertex="1">
          <mxGeometry x="385" y="140" width="35" height="35" as="geometry" />
        </mxCell>
        <mxCell id="lMvDRTyG3sQqj4a4Xa7K-21" value="&lt;font style=&quot;font-size: 18px;&quot;&gt;-&lt;/font&gt;" style="text;html=1;strokeColor=none;fillColor=none;align=center;verticalAlign=middle;whiteSpace=wrap;rounded=0;" parent="i9w1kdauPmTtHQtBrQjo-3" vertex="1">
          <mxGeometry x="70" y="140" width="35" height="35" as="geometry" />
        </mxCell>
        <mxCell id="lMvDRTyG3sQqj4a4Xa7K-23" value="&lt;font style=&quot;font-size: 16px;&quot;&gt;+&lt;/font&gt;" style="text;html=1;strokeColor=none;fillColor=none;align=center;verticalAlign=middle;whiteSpace=wrap;rounded=0;" parent="i9w1kdauPmTtHQtBrQjo-3" vertex="1">
          <mxGeometry x="385" y="70" width="35" height="35" as="geometry" />
        </mxCell>
        <mxCell id="lMvDRTyG3sQqj4a4Xa7K-24" value="" style="endArrow=classic;html=1;rounded=0;" parent="i9w1kdauPmTtHQtBrQjo-3" edge="1">
          <mxGeometry width="50" height="50" relative="1" as="geometry">
            <mxPoint x="402.5" y="121.65999999999997" as="sourcePoint" />
            <mxPoint x="507.5" y="122.5" as="targetPoint" />
          </mxGeometry>
        </mxCell>
        <mxCell id="lMvDRTyG3sQqj4a4Xa7K-29" value="&lt;font style=&quot;font-size: 16px;&quot;&gt;θ = 0&lt;/font&gt;" style="text;strokeColor=none;align=center;fillColor=none;html=1;verticalAlign=middle;whiteSpace=wrap;rounded=0;" parent="i9w1kdauPmTtHQtBrQjo-3" vertex="1">
          <mxGeometry x="10" y="87.5" width="70" height="35" as="geometry" />
        </mxCell>
        <mxCell id="lMvDRTyG3sQqj4a4Xa7K-30" value="&lt;font style=&quot;font-size: 16px;&quot;&gt;θ&lt;/font&gt;next " style="text;strokeColor=none;align=center;fillColor=none;html=1;verticalAlign=middle;whiteSpace=wrap;rounded=0;" parent="i9w1kdauPmTtHQtBrQjo-3" vertex="1">
          <mxGeometry x="105" y="280" width="70" height="35" as="geometry" />
        </mxCell>
        <mxCell id="lMvDRTyG3sQqj4a4Xa7K-31" value="&lt;font style=&quot;font-size: 16px;&quot;&gt;Kinematics&lt;/font&gt;" style="rounded=0;whiteSpace=wrap;html=1;" parent="i9w1kdauPmTtHQtBrQjo-3" vertex="1">
          <mxGeometry x="201.25" y="297.50000000000006" width="157.50000000000003" height="52.5" as="geometry" />
        </mxCell>
        <mxCell id="lMvDRTyG3sQqj4a4Xa7K-32" value="&lt;font style=&quot;font-size: 14px;&quot;&gt;ΔVs&lt;/font&gt;" style="text;whiteSpace=wrap;html=1;" parent="i9w1kdauPmTtHQtBrQjo-3" vertex="1">
          <mxGeometry x="350" width="52.5" height="35" as="geometry" />
        </mxCell>
        <mxCell id="lMvDRTyG3sQqj4a4Xa7K-33" value="&lt;font style=&quot;font-size: 14px;&quot;&gt;ΔVa&lt;/font&gt;" style="text;whiteSpace=wrap;html=1;" parent="i9w1kdauPmTtHQtBrQjo-3" vertex="1">
          <mxGeometry x="350" y="192.5" width="52.5" height="35" as="geometry" />
        </mxCell>
        <mxCell id="lMvDRTyG3sQqj4a4Xa7K-34" value="&lt;font style=&quot;font-size: 14px;&quot;&gt;next pos.&lt;/font&gt;" style="text;html=1;strokeColor=none;fillColor=none;align=center;verticalAlign=middle;whiteSpace=wrap;rounded=0;" parent="i9w1kdauPmTtHQtBrQjo-3" vertex="1">
          <mxGeometry x="420" y="122.5" width="105" height="52.5" as="geometry" />
        </mxCell>
      </root>
    </mxGraphModel>
  </diagram>
</mxfile>
